<svg xmlns="http://www.w3.org/2000/svg" viewBox="0 0 197.73 74.96"><defs><style>.cls-1,.cls-3{fill:none;}.cls-2{fill:#fff;}.cls-3{stroke:#151515;stroke-linecap:round;stroke-width:2px;}.cls-4{fill:#c92932;}</style></defs><g id="Layer_2" data-name="Layer 2"><g id="Layer_1-2" data-name="Layer 1"><rect class="cls-1" width="197.73" height="74.96"/><path class="cls-2" d="M20.32,33.12l3.43,0,0,4.62,3.18,0v2l-3.17,0,0,3.68-3.44,0Zm4,2V33.1l5.24,0,0,3.43-3.44,0V35.15Zm6.25,6h1l0-5.92h-1V33.06L36,33v2.2H35l0,5.93h1v2.2l-5.51,0Zm10.6.07h3V43.3l-4.32,0-2.08-2,0-6.21,2-2.07h1.38ZM43,37.58l4.72,0,0,5.72-3,0,0-3.68H43Zm-1.3-2.53V33l4.2,0,1.81,2v1l-3.44,0V35ZM55.84,32.9l3.47,0,.06,10.33-3.44,0,0-4.19H53.35l0-2.07h2.53Zm-3,10.34-3.44,0-.07-10.32,3.44,0Zm10.49-7.61,3.58,0,0,7.54-3.58,0Zm-2.71-2.76,9-.06v2.25l-9,0Z"/><path class="cls-2" d="M138.05,42.78l0-3.87-4.46,0-2.09-2V34.56l2.06-2.08h1.16l0,3.66,4.74,0,2,2.06V40.7l-2,2.07Zm-2.81-8.45V32.47l4.13,0,1.8,1.78v1.1l-3.17,0v-1Zm-3.75,5.4,3.44,0v1.23h2.55v1.87l-4.25,0-1.75-2.05Zm11.51.82h1l0-5.93h-1v-2.2l5.51,0v2.19h-1l0,5.93h1v2.2l-5.51,0Zm9.33-5.4,3.57,0,0,7.54-3.58,0Zm-2.71-2.77,9-.06v2.25l-9,.06Zm13.75,6,0,4.24-3.44,0-.07-10.32,3.44,0,0,4.1,3.29,0v2Zm.52-4.09v-2l5.37,0,0,3-3.23,0v-1Zm.05,8.33V40.55h1.94v-1l3.44,0,0,3.09Z"/><path class="cls-3" d="M8.26,5.9c71.85,12.71,111.67,13.81,181.5,0"/><path class="cls-3" d="M8.26,70.74c71.85-12.71,111.67-13.81,181.5,0"/><path class="cls-4" d="M75.13,36.55s5.31,17.68,6.08,18.51S86.8,54.4,87,53.45s-3.57-16.9-3.57-16.9h1.45s4,19.13,4.73,19.68,7.47-1.17,7.71-2.11S93.6,34,93.6,34h1.25s3.81,18.57,4.73,20.13,9.16-.95,9.45-2.11-3.57-21.13-3.57-21.13h1.45s3,18.18,4,19.79,7.86-.55,8.2-1.56-3.86-24.46-4.24-26.58-1.69-5.39-3-5.78-4.92.67-5.6,1-2,1.78-2.89,1.78-2.75-2.78-3.76-3.45-4.73,1.12-5.4,1.67-1.74,3.84-2.51,4-1.93-.67-2.89-.89-3.86.89-4.73,1.66-1.73,4.51-2.22,4.9-2.41,0-3.13,0-3.18,1.89-3.57,2.89S75.13,36.55,75.13,36.55Z"/><path class="cls-4" d="M123.06,35.44c-.43-1.73-4.92-3.45-4.92-3.45s2.27,16,2.37,17.12-.39,1.62-1.45,2.17-14.27,3.84-14.71,4.17-.67,1.12-1,3.06.39,2.23.58,2.28,14-1,16-1.67a4.19,4.19,0,0,0,2.51-2.89S123.5,37.16,123.06,35.44Z"/></g></g></svg>