<svg xmlns="http://www.w3.org/2000/svg" viewBox="0 0 50.53 68.31"><defs><style>.cls-1{fill:#fff;}.cls-2{fill:#c92932;}</style></defs><g id="Layer_2" data-name="Layer 2"><g id="Layer_1-2" data-name="Layer 1"><path class="cls-1" d="M1.25.31l3.44,0,0,4.62,3.17,0,0,2-3.18,0,0,3.68-3.43,0Zm4,2,0-2.06,5.25,0,0,3.42-3.44,0V2.34Zm6.24,6h1l0-5.93h-1l0-2.19L17,.21l0,2.2h-1l0,5.92h1l0,2.2-5.51,0Zm10.6.08,2.95,0,0,2.06-4.33,0-2.08-2,0-6.2L20.66.19H22Zm1.8-3.68,4.72,0,0,5.73-3,0,0-3.69-1.68,0ZM22.6,2.24V.18l4.19,0L28.6,2.2v1l-3.43,0v-1ZM36.77.09l3.47,0,.07,10.32-3.45,0,0-4.19-2.55,0V4.17l2.53,0Zm-3,10.34-3.44,0L30.26.13l3.44,0Zm10.5-7.6,3.58,0,0,7.54-3.58,0ZM41.55.06l9-.06,0,2.25-9,.06Z"/><path class="cls-1" d="M13.55,68.28l0-3.87-4.47,0L7,62.38V60.06L9,58h1.17l0,3.67,4.75,0,2,2,0,2.53-2.05,2.08Zm-2.81-8.45V58l4.13,0,1.8,1.79v1.1l-3.17,0v-1ZM7,65.22l3.44,0v1.23l2.55,0v1.87l-4.26,0L7,66.26ZM18.5,66h1l0-5.93h-1l0-2.19,5.51,0,0,2.2h-1L23,66h1v2.2l-5.51,0Zm9.32-5.39,3.58,0,.05,7.54-3.58,0Zm-2.71-2.77,9-.06v2.25l-9,.06Zm13.76,6,0,4.25-3.44,0-.07-10.33,3.44,0,0,4.09,3.29,0v2Zm.52-4.08v-2l5.37,0,0,3-3.24,0v-1Zm0,8.32V66.05h1.94V65l3.44,0,0,3.1Z"/><path class="cls-2" d="M.17,32.1S5.48,49.78,6.25,50.62,11.84,50,12.08,49,8.51,32.1,8.51,32.1H10s3.95,19.13,4.73,19.68,7.47-1.16,7.71-2.11-3.76-20.13-3.76-20.13h1.25s3.81,18.57,4.73,20.13,9.16-1,9.45-2.11S30.5,26.43,30.5,26.43H32s3,18.18,3.95,19.79,7.86-.55,8.2-1.55S40.24,20.2,39.86,18.08s-1.69-5.39-3-5.78-4.92.67-5.6,1-2,1.78-2.89,1.78-2.75-2.78-3.76-3.45-4.73,1.12-5.4,1.67-1.74,3.84-2.51,4-1.93-.67-2.89-.89-3.86.89-4.73,1.66S7.36,22.59,6.87,23s-2.41,0-3.13,0S.56,24.87.17,25.87.17,32.1.17,32.1Z"/><path class="cls-2" d="M48.1,31c-.43-1.73-4.92-3.45-4.92-3.45s2.27,16,2.37,17.13-.39,1.61-1.45,2.16S29.83,50.67,29.39,51s-.67,1.12-1,3.06.39,2.23.58,2.28,14-1.05,16-1.67a4.19,4.19,0,0,0,2.51-2.89S48.54,32.71,48.1,31Z"/></g></g></svg>