<svg xmlns="http://www.w3.org/2000/svg" viewBox="0 0 177.1 177.1"><defs><style>.cls-1{fill:#1d1d1b;}.cls-13,.cls-2,.cls-3{fill:#fff;}.cls-2{opacity:0;}.cls-10,.cls-11,.cls-12,.cls-13,.cls-4,.cls-5,.cls-6,.cls-7,.cls-8,.cls-9{isolation:isolate;}.cls-4{font-size:16.99px;}.cls-10,.cls-11,.cls-12,.cls-4,.cls-5,.cls-6,.cls-7,.cls-9{fill:#ca151a;}.cls-10,.cls-11,.cls-12,.cls-4,.cls-5,.cls-6,.cls-7,.cls-8,.cls-9{font-family:HelveticaNeue, Helvetica Neue;}.cls-5{font-size:16.87px;}.cls-6{font-size:16.94px;}.cls-7{font-size:16.92px;}.cls-8{font-size:16.89px;fill:#474746;}.cls-9{font-size:16.92px;}.cls-10{font-size:16.94px;}.cls-11{font-size:16.89px;}.cls-12{font-size:16.86px;}.cls-13{font-size:19px;font-family:MAZERUNNER, MAZE RUNNER;}</style></defs><g id="Layer_2" data-name="Layer 2"><g id="Layer_1-2" data-name="Layer 1"><g id="Layer_2-2" data-name="Layer 2"><g id="Layer_1-2-2" data-name="Layer 1-2"><circle class="cls-1" cx="88.54" cy="88.55" r="86.55"/><path class="cls-2" d="M88.54,4A84.55,84.55,0,1,1,4,88.55H4A84.54,84.54,0,0,1,88.54,4m0-4A88.55,88.55,0,1,0,177.1,88.55,88.56,88.56,0,0,0,88.54,0Z"/><path class="cls-3" d="M50.08,98.09s8.1,23.42,9.28,24.53,8.55-.88,8.92-2.14-5.46-22.39-5.46-22.39H65s6,25.34,7.22,26.08,11.42-1.55,11.79-2.8S78.29,94.7,78.29,94.7h1.92s5.82,24.6,7.22,26.67,14-1.26,14.43-2.8-5.45-28-5.45-28h2.21s4.64,24.08,6,26.22,12-.74,12.53-2.06-5.88-32.4-6.47-35.22-2.6-7.13-4.6-7.64-7.52.88-8.55,1.32-3,2.32-4.38,2.32-4.2-3.68-5.74-4.57-7.22,1.57-8.25,2.25-2.65,5.09-3.83,5.32-3-.89-4.42-1.18-5.9,1.18-7.22,2.18-2.61,6-3.39,6.5-3.68,0-4.79,0-4.86,2.5-5.43,3.83S50.08,98.09,50.08,98.09Z"/><path class="cls-3" d="M123.28,96.62c-.66-2.29-7.51-4.57-7.51-4.57s3.46,21.21,3.6,22.69-.58,2.13-2.2,2.87-21.81,5.08-22.47,5.53-1,1.47-1.55,4,.59,2.94.89,3,21.36-1.4,24.38-2.21a5.76,5.76,0,0,0,3.83-3.83S123.94,98.9,123.28,96.62Z"/><text class="cls-4" transform="matrix(0.71, -0.5, 0.58, 0.82, 44.43, 44.86)">M</text><text class="cls-5" transform="matrix(0.77, -0.39, 0.45, 0.89, 54.28, 37.99)">A</text><text class="cls-6" transform="matrix(0.8, -0.32, 0.37, 0.93, 62.22, 34.04)">I</text><text class="cls-7" transform="matrix(0.83, -0.24, 0.28, 0.96, 65.07, 32.67)">N</text><text class="cls-8" transform="matrix(0.86, -0.11, 0.13, 0.99, 78.16, 29.38)">|</text><text class="cls-9" transform="matrix(0.87, 0.02, -0.02, 1, 84.28, 28.6)">E</text><text class="cls-10" transform="matrix(0.86, 0.13, -0.15, 0.99, 92.51, 28.71)">V</text><text class="cls-7" transform="matrix(0.83, 0.24, -0.28, 0.96, 100.65, 29.92)">E</text><text class="cls-11" transform="matrix(0.79, 0.35, -0.41, 0.91, 108.56, 32.12)">N</text><text class="cls-12" transform="matrix(0.74, 0.45, -0.52, 0.85, 117.56, 36.17)">T</text><text class="cls-11" transform="matrix(0.68, 0.53, -0.61, 0.79, 124.18, 40.13)">S</text><text class="cls-13" transform="translate(45.83 64.46) scale(1.12 1)">FIGHT</text><text class="cls-13" transform="translate(53.85 151) scale(1.12 1)">SITE</text></g></g></g></g></svg>