<svg xmlns="http://www.w3.org/2000/svg" viewBox="0 0 197.73 74.96"><defs><style>.cls-1{fill:none;}.cls-2{fill:#fff;}.cls-3{fill:#c92932;}</style></defs><g id="Layer_2" data-name="Layer 2"><g id="Layer_1-2" data-name="Layer 1"><rect class="cls-1" width="197.73" height="74.96"/><path class="cls-2" d="M76.21,4.76l3.44,0,0,4.62,3.17,0,0,2-3.18,0,0,3.68-3.43,0Zm4,2,0-2.06,5.25,0,0,3.42L82,8.15V6.79Zm6.24,6h1l0-5.93h-1l0-2.19,5.51,0,0,2.2h-1l0,5.92h1L92,15l-5.51,0Zm10.6.08,3,0,0,2.06-4.33,0-2.08-2.05,0-6.2,2.05-2.08H97Zm1.8-3.68,4.72,0,0,5.73-3,0,0-3.69-1.68,0ZM97.56,6.69V4.63l4.19,0,1.82,2.05v1l-3.43,0v-1Zm14.17-2.15,3.47,0,.07,10.32-3.45,0,0-4.19-2.55,0V8.62l2.53,0Zm-3,10.34-3.44,0-.06-10.33,3.44,0Zm10.5-7.6,3.58,0,0,7.54-3.58,0Zm-2.71-2.77,9-.06,0,2.25-9,.06Z"/><path class="cls-2" d="M88.51,72.73l0-3.87-4.47,0-2.08-2.06V64.51l2-2.08h1.17l0,3.67,4.75,0,2,2,0,2.53-2,2.08ZM85.7,64.28V62.42l4.13,0,1.8,1.79v1.1l-3.17,0v-1ZM82,69.67l3.44,0v1.23l2.55,0v1.87l-4.26,0L82,70.71Zm11.51.82h1l0-5.93h-1l0-2.19,5.51,0,0,2.2h-1l0,5.92h1v2.2l-5.51,0Zm9.32-5.39,3.58,0,0,7.54-3.58,0Zm-2.71-2.77,9-.06v2.25l-9,.06Zm13.76,6,0,4.25-3.44,0-.07-10.33,3.44,0,0,4.09,3.29,0v2Zm.52-4.08v-2l5.37,0,0,3-3.24,0v-1Zm.05,8.32V70.5h1.94v-1l3.44,0,0,3.1Z"/><path class="cls-3" d="M75.13,36.55s5.31,17.68,6.08,18.51S86.8,54.4,87,53.45s-3.57-16.9-3.57-16.9h1.45s4,19.13,4.73,19.68,7.47-1.17,7.71-2.11S93.6,34,93.6,34h1.25s3.81,18.57,4.73,20.13,9.16-.95,9.45-2.11-3.57-21.13-3.57-21.13h1.45s3,18.18,4,19.79,7.86-.55,8.2-1.56-3.86-24.46-4.24-26.58-1.69-5.39-3-5.78-4.92.67-5.6,1-2,1.78-2.89,1.78-2.75-2.78-3.76-3.45-4.73,1.12-5.4,1.67-1.74,3.84-2.51,4-1.93-.67-2.89-.89-3.86.89-4.73,1.66-1.73,4.51-2.22,4.9-2.41,0-3.13,0-3.18,1.89-3.57,2.89S75.13,36.55,75.13,36.55Z"/><path class="cls-3" d="M123.06,35.44c-.43-1.73-4.92-3.45-4.92-3.45s2.27,16,2.37,17.12-.39,1.62-1.45,2.17-14.27,3.84-14.71,4.17-.67,1.12-1,3.06.39,2.23.58,2.28,14-1,16-1.67a4.19,4.19,0,0,0,2.51-2.89S123.5,37.16,123.06,35.44Z"/></g></g></svg>