<svg xmlns="http://www.w3.org/2000/svg" viewBox="0 0 177.11 184.33"><defs><style>.cls-1{fill:#1d1d1b;}.cls-2,.cls-4,.cls-6,.cls-8{fill:#fff;}.cls-3{fill:none;stroke:#fff;stroke-width:0.32px;}.cls-4{font-size:16px;}.cls-4,.cls-8{font-family:MAZERUNNER, MAZE RUNNER;}.cls-5,.cls-6,.cls-7{font-size:16.92px;font-family:HelveticaNeue, Helvetica Neue;}.cls-5{fill:#ca151a;}.cls-7{fill:#474746;}.cls-8{font-size:19px;letter-spacing:0em;}</style></defs><g id="Layer_2" data-name="Layer 2"><g id="Layer_1-2" data-name="Layer 1"><circle class="cls-1" cx="88.55" cy="94.24" r="86.55"/><path class="cls-2" d="M88.55,9.69A84.55,84.55,0,1,1,4,94.24,84.55,84.55,0,0,1,88.55,9.69m0-4a88.55,88.55,0,1,0,88.56,88.55A88.65,88.65,0,0,0,88.55,5.69Z"/><path class="cls-2" d="M15,109.58s8.1,23.42,9.28,24.53,8.55-.88,8.92-2.14-5.46-22.39-5.46-22.39h2.21s6,25.34,7.22,26.08,11.42-1.55,11.79-2.8-5.75-26.67-5.75-26.67h1.92s5.82,24.6,7.22,26.67,14-1.26,14.43-2.8-5.45-28-5.45-28h2.21s4.64,24.08,6,26.22,12-.74,12.53-2.06S76.19,93.82,75.6,91,73,83.87,71,83.36s-7.52.88-8.55,1.32S59.4,87,58.07,87s-4.2-3.68-5.74-4.57S45.11,84,44.08,84.68,41.43,89.77,40.25,90s-3-.89-4.42-1.18S29.93,90,28.61,91,26,97,25.22,97.5s-3.68,0-4.79,0S15.57,100,15,101.33,15,109.58,15,109.58Z"/><path class="cls-2" d="M88.2,108.11c-.66-2.29-7.51-4.57-7.51-4.57s3.46,21.21,3.6,22.69-.58,2.13-2.2,2.87-21.81,5.08-22.47,5.53-1,1.47-1.55,4.05.59,2.94.89,3,21.36-1.4,24.38-2.21a5.76,5.76,0,0,0,3.83-3.83S88.86,110.39,88.2,108.11Z"/><path class="cls-3" d="M15,109.58s8.1,23.42,9.28,24.53,8.55-.88,8.92-2.14-5.46-22.39-5.46-22.39h2.21s6,25.34,7.22,26.08,11.42-1.55,11.79-2.8-5.75-26.67-5.75-26.67h1.92s5.82,24.6,7.22,26.67,14-1.26,14.43-2.8-5.45-28-5.45-28h2.21s4.64,24.08,6,26.22,12-.74,12.53-2.06S76.19,93.82,75.6,91,73,83.87,71,83.36s-7.52.88-8.55,1.32S59.4,87,58.07,87s-4.2-3.68-5.74-4.57S45.11,84,44.08,84.68,41.43,89.77,40.25,90s-3-.89-4.42-1.18S29.93,90,28.61,91,26,97,25.22,97.5s-3.68,0-4.79,0S15.57,100,15,101.33,15,109.58,15,109.58Z"/><path class="cls-3" d="M88.2,108.11c-.66-2.29-7.51-4.57-7.51-4.57s3.46,21.21,3.6,22.69-.58,2.13-2.2,2.87-21.81,5.08-22.47,5.53-1,1.47-1.55,4.05.59,2.94.89,3,21.36-1.4,24.38-2.21a5.76,5.76,0,0,0,3.83-3.83S88.86,110.39,88.2,108.11Z"/><text class="cls-4" transform="matrix(0.81, 0.58, -0.58, 0.81, 32.35, 148.13)">C</text><text class="cls-4" transform="translate(46.9 158.33) rotate(24.74)">A</text><text class="cls-4" transform="matrix(0.97, 0.25, -0.25, 0.97, 62.34, 165.21)">L</text><text class="cls-4" transform="translate(76.54 168.83) rotate(3.79)">E</text><text class="cls-4" transform="translate(92.82 169.84) rotate(-9.09)">N</text><text class="cls-4" transform="matrix(0.92, -0.39, 0.39, 0.92, 110.76, 166.73)">D</text><text class="cls-4" transform="translate(127.04 159.5) rotate(-36.11)">A</text><text class="cls-4" transform="translate(140.67 149.33) rotate(-47.16)">R</text><text class="cls-5" transform="matrix(0.71, -0.5, 0.58, 0.82, 44.44, 50.55)">M</text><text class="cls-5" transform="matrix(0.77, -0.39, 0.45, 0.89, 54.29, 43.68)">A</text><text class="cls-5" transform="matrix(0.8, -0.32, 0.37, 0.93, 62.23, 39.73)">I</text><text class="cls-5" transform="matrix(0.83, -0.24, 0.28, 0.96, 65.08, 38.36)">N</text><text class="cls-6" transform="matrix(0.85, -0.15, 0.18, 0.98, 74.65, 35.71)"> </text><text class="cls-7" transform="matrix(0.86, -0.11, 0.13, 0.99, 78.17, 35.07)">|</text><text class="cls-6" transform="matrix(0.86, -0.07, 0.08, 1, 80.87, 34.7)"> </text><text class="cls-5" transform="matrix(0.87, 0.02, -0.02, 1, 84.29, 34.29)">E</text><text class="cls-5" transform="matrix(0.86, 0.13, -0.15, 0.99, 92.52, 34.4)">V</text><text class="cls-5" transform="matrix(0.83, 0.24, -0.28, 0.96, 100.66, 35.61)">E</text><text class="cls-5" transform="matrix(0.79, 0.35, -0.41, 0.91, 108.57, 37.81)">N</text><text class="cls-5" transform="matrix(0.74, 0.45, -0.52, 0.85, 117.57, 41.86)">T</text><text class="cls-5" transform="matrix(0.68, 0.53, -0.61, 0.79, 124.19, 45.82)">S</text><text class="cls-8" transform="translate(46.02 75.28) scale(1.12 1)">FIGHT</text></g></g></svg>