<svg xmlns="http://www.w3.org/2000/svg" viewBox="0 0 149.68 155.67"><defs><style>.cls-1,.cls-3,.cls-5,.cls-7{fill:#fff;}.cls-2{fill:none;stroke:#fff;stroke-width:0.27px;}.cls-3{font-size:13.52px;}.cls-3,.cls-7{font-family:MAZERUNNER, MAZE RUNNER;}.cls-4,.cls-5,.cls-6{font-size:14.3px;font-family:HelveticaNeue, Helvetica Neue;}.cls-4{fill:#ca151a;}.cls-6{fill:#474746;}.cls-7{font-size:16.06px;letter-spacing:0em;}</style></defs><g id="Layer_2" data-name="Layer 2"><g id="Layer_1-2" data-name="Layer 1"><circle cx="74.84" cy="79.63" r="73.15" transform="translate(-24.78 34.7) rotate(-22.5)"/><path class="cls-1" d="M74.84,8.17A71.46,71.46,0,1,1,3.38,79.63,71.47,71.47,0,0,1,74.84,8.17m0-3.38a74.84,74.84,0,1,0,74.84,74.84A74.93,74.93,0,0,0,74.84,4.79Z"/><path class="cls-1" d="M12.66,92.6s6.85,19.79,7.84,20.73,7.23-.75,7.54-1.81S23.43,92.6,23.43,92.6H25.3s5.1,21.41,6.1,22,9.65-1.31,10-2.37S36.5,89.74,36.5,89.74h1.62s4.92,20.79,6.1,22.53,11.83-1.06,12.2-2.37-4.6-23.65-4.6-23.65h1.87s3.92,20.36,5.1,22.16,10.15-.62,10.58-1.74-5-27.39-5.48-29.76-2.17-6-3.86-6.47-6.34.74-7.22,1.12-2.61,2-3.73,2-3.55-3.11-4.86-3.86-6.1,1.25-7,1.87S35,75.85,34,76s-2.49-.75-3.73-1-5,1-6.1,1.87-2.24,5-2.87,5.48-3.11,0-4,0-4.11,2.12-4.61,3.24S12.66,92.6,12.66,92.6Z"/><path class="cls-1" d="M74.54,91.35c-.56-1.93-6.35-3.86-6.35-3.86s2.93,17.93,3,19.18-.5,1.8-1.87,2.43-18.42,4.29-19,4.66-.88,1.25-1.31,3.43.5,2.49.75,2.55,18-1.18,20.6-1.87a4.87,4.87,0,0,0,3.24-3.23S75.1,93.28,74.54,91.35Z"/><path class="cls-2" d="M12.66,92.6s6.85,19.79,7.84,20.73,7.23-.75,7.54-1.81S23.43,92.6,23.43,92.6H25.3s5.1,21.41,6.1,22,9.65-1.31,10-2.37S36.5,89.74,36.5,89.74h1.62s4.92,20.79,6.1,22.53,11.83-1.06,12.2-2.37-4.6-23.65-4.6-23.65h1.87s3.92,20.36,5.1,22.16,10.15-.62,10.58-1.74-5-27.39-5.48-29.76-2.17-6-3.86-6.47-6.34.74-7.22,1.12-2.61,2-3.73,2-3.55-3.11-4.86-3.86-6.1,1.25-7,1.87S35,75.85,34,76s-2.49-.75-3.73-1-5,1-6.1,1.87-2.24,5-2.87,5.48-3.11,0-4,0-4.11,2.12-4.61,3.24S12.66,92.6,12.66,92.6Z"/><path class="cls-2" d="M74.54,91.35c-.56-1.93-6.35-3.86-6.35-3.86s2.93,17.93,3,19.18-.5,1.8-1.87,2.43-18.42,4.29-19,4.66-.88,1.25-1.31,3.43.5,2.49.75,2.55,18-1.18,20.6-1.87a4.87,4.87,0,0,0,3.24-3.23S75.1,93.28,74.54,91.35Z"/><text class="cls-3" transform="translate(27.3 125.14) rotate(35.59)">C</text><text class="cls-3" transform="translate(39.53 133.74) rotate(24.83)">A</text><text class="cls-3" transform="translate(52.46 139.54) rotate(14.67)">L</text><text class="cls-3" transform="translate(64.4 142.63) rotate(4.04)">E</text><text class="cls-3" transform="translate(78.04 143.55) rotate(-8.72)">N</text><text class="cls-3" transform="translate(93.09 141.05) rotate(-22.64)">D</text><text class="cls-3" transform="translate(106.82 135.11) rotate(-35.58)">A</text><text class="cls-3" transform="translate(118.35 126.68) rotate(-46.65)">R</text><text class="cls-4" transform="matrix(0.71, -0.5, 0.58, 0.82, 37.56, 42.71)">M</text><text class="cls-4" transform="matrix(0.77, -0.39, 0.45, 0.89, 45.91, 36.89)">A</text><text class="cls-4" transform="matrix(0.8, -0.32, 0.37, 0.93, 52.64, 33.55)">I</text><text class="cls-4" transform="matrix(0.83, -0.24, 0.28, 0.96, 55.05, 32.39)">N</text><text class="cls-5" transform="matrix(0.85, -0.15, 0.18, 0.98, 63.13, 30.16)"> </text><text class="cls-6" transform="matrix(0.86, -0.11, 0.13, 0.99, 66.13, 29.62)">|</text><text class="cls-5" transform="matrix(0.86, -0.06, 0.07, 1, 68.43, 29.31)"> </text><text class="cls-4" transform="matrix(0.87, 0.02, -0.02, 1, 71.35, 28.96)">E</text><text class="cls-4" transform="matrix(0.86, 0.13, -0.15, 0.99, 78.3, 29.07)">V</text><text class="cls-4" transform="matrix(0.83, 0.24, -0.28, 0.96, 85.2, 30.11)">E</text><text class="cls-4" transform="matrix(0.79, 0.36, -0.41, 0.91, 91.9, 31.99)">N</text><text class="cls-4" transform="matrix(0.74, 0.45, -0.52, 0.85, 99.49, 35.43)">T</text><text class="cls-4" transform="matrix(0.68, 0.53, -0.62, 0.79, 105.11, 38.82)">S</text><text class="cls-7" transform="translate(38.89 63.61) scale(1.12 1)">FIGHT</text></g></g></svg>