<svg xmlns="http://www.w3.org/2000/svg" viewBox="0 0 335 127"><defs><style>.cls-1{fill:#fff;}.cls-2{fill:#151515;}.cls-3{fill:none;stroke:#151515;stroke-linecap:round;stroke-width:9px;}.cls-4{fill:#c92932;}</style></defs><g id="Layer_2" data-name="Layer 2"><g id="Layer_1-2" data-name="Layer 1"><rect class="cls-1" width="335" height="127"/><path class="cls-2" d="M34.42,56.12l5.83,0,0,7.82,5.37,0,0,3.44-5.38,0,0,6.23-5.83,0Zm6.77,3.45,0-3.5,8.88,0,0,5.8-5.83,0V59.55Zm10.59,10.2h1.75l-.06-10.05-1.76,0,0-3.72L61,56l0,3.72H59.29l.07,10h1.75l0,3.73-9.33.06Zm18,.12,5,0,0,3.5-7.33,0-3.51-3.47-.07-10.51,3.47-3.51,2.33,0Zm3-6.23,8,0,.06,9.71-5.16,0,0-6.24-2.84,0Zm-2.19-4.28,0-3.49,7.1,0,3.08,3.48v1.75l-5.82,0V59.35Zm24-3.65,5.88,0,.11,17.49-5.84,0,0-7.11-4.33,0,0-3.51,4.28,0ZM89.5,73.26l-5.82,0-.11-17.5,5.82,0Zm17.79-12.89,6.06,0,.08,12.78-6.06,0Zm-4.6-4.69,15.19-.1,0,3.81-15.19.1Z"/><path class="cls-2" d="M233.88,72.48l0-6.55-7.56,0-3.53-3.49,0-3.94L226.21,55l2,0,0,6.21,8,0,3.42,3.49,0,4.28-3.47,3.52Zm-4.75-14.31,0-3.15,7-.05,3,3v1.86l-5.37,0V58.14Zm-6.35,9.14,5.82,0,0,2.08,4.32,0,0,3.17-7.21,0-3-3.47Zm19.49,1.39H244l-.07-10h-1.75l0-3.72,9.34-.06,0,3.72h-1.75l.06,10.05h1.76l0,3.73-9.33.06Zm15.8-9.15,6.07,0,.08,12.78-6.06,0Zm-4.59-4.69,15.19-.1,0,3.82-15.18.09ZM276.79,65l0,7.19-5.83,0-.11-17.5,5.83,0,0,6.94,5.58,0,0,3.38Zm.88-6.92,0-3.39,9.11-.06,0,5.06-5.49,0V58.07Zm.09,14.1,0-3.49,3.28,0V66.93l5.83,0,0,5.24Z"/><path class="cls-3" d="M14,10c121.73,21.53,189.2,23.4,307.5,0"/><path class="cls-3" d="M14,119.86c121.73-21.54,189.2-23.4,307.5,0"/><path class="cls-4" d="M127.29,61.92s9,30,10.29,31.37,9.48-1.13,9.89-2.73-6.05-28.64-6.05-28.64h2.46s6.69,32.41,8,33.35,12.66-2,13.07-3.58-6.37-34.1-6.37-34.1h2.12s6.46,31.46,8,34.1,15.52-1.6,16-3.58-6-35.8-6-35.8h2.45s5.14,30.81,6.7,33.54,13.31-.94,13.89-2.64-6.54-41.45-7.19-45-2.86-9.14-5.07-9.8-8.33,1.13-9.47,1.7-3.44,3-4.91,3-4.65-4.71-6.37-5.84-8,1.88-9.15,2.83-2.94,6.5-4.25,6.78-3.27-1.13-4.9-1.51-6.53,1.51-8,2.83-2.94,7.63-3.75,8.29-4.09,0-5.31,0-5.4,3.2-6,4.9S127.29,61.92,127.29,61.92Z"/><path class="cls-4" d="M208.5,60c-.74-2.92-8.34-5.85-8.34-5.85s3.84,27.14,4,29-.66,2.73-2.45,3.68S177.53,93.39,176.8,94s-1.15,1.89-1.72,5.18.66,3.77,1,3.87,23.7-1.79,27-2.83,4.25-4.9,4.25-4.9S209.23,63,208.5,60Z"/></g></g></svg>